<svg xmlns="http://www.w3.org/2000/svg" viewBox="0 0 800 450" role="img" aria-labelledby="title desc">
  <title id="title">Donor and recipient cells</title><desc id="desc">A donor bacterium with a fertility factor and sex pili beside a recipient bacterium without them</desc>
  <defs><linearGradient id="bg" x2="1" y2="1"><stop stop-color="#172554"/><stop offset="1" stop-color="#0f766e"/></linearGradient></defs>
  <rect width="800" height="450" rx="32" fill="url(#bg)"/>
  <g fill="#5eead4" fill-opacity=".3" stroke="#99f6e4" stroke-width="7"><rect x="95" y="155" width="245" height="150" rx="75"/><rect x="460" y="155" width="245" height="150" rx="75"/></g>
  <g stroke="#67e8f9" stroke-width="4"><path d="M110 170l-35-25m28 55l-43-8m47 42l-44 10m60 39l-31 31M325 171l35-26m-28 57l42-9m-48 45l43 12m-60 34l31 31"/></g>
  <circle cx="220" cy="230" r="39" fill="none" stroke="#fbbf24" stroke-width="9"/><path d="M500 230c28-38 62 38 90 0s62 38 90 0" fill="none" stroke="#c4b5fd" stroke-width="9" stroke-linecap="round"/>
  <g font-family="Arial,sans-serif" fill="#fff"><text x="400" y="55" text-anchor="middle" font-size="30" font-weight="700">1 · DONOR AND RECIPIENT</text><text x="217" y="132" text-anchor="middle" font-size="21">Donor cell</text><text x="583" y="132" text-anchor="middle" font-size="21">Recipient cell</text><text x="220" y="235" text-anchor="middle" font-size="16">F factor</text><text x="400" y="397" text-anchor="middle" font-size="22">Only the donor has the fertility factor and sex pili</text></g>
</svg>