<svg xmlns="http://www.w3.org/2000/svg" viewBox="0 0 800 450" role="img" aria-labelledby="title desc">
  <title id="title">Biosynthesis stage</title><desc id="desc">Viral DNA controlling the host mechanism to make new DNA and viral proteins</desc>
  <defs><linearGradient id="bg" x2="1" y2="1"><stop stop-color="#082f49"/><stop offset="1" stop-color="#14532d"/></linearGradient><marker id="a" markerWidth="8" markerHeight="8" refX="7" refY="4" orient="auto"><path d="M0 0l8 4-8 4z" fill="#fbbf24"/></marker></defs><rect width="800" height="450" rx="32" fill="url(#bg)"/>
  <rect x="72" y="95" width="656" height="295" rx="145" fill="#34d399" opacity=".18" stroke="#6ee7b7" stroke-width="6"/>
  <path d="M155 210c32-52 64 52 96 0s64 52 96 0" stroke="#c4b5fd" stroke-width="9" fill="none" stroke-linecap="round"/><text x="250" y="175" text-anchor="middle" font-family="Arial" font-size="22" fill="#ddd6fe" font-weight="700">VIRAL DNA</text>
  <path d="M360 212h98" stroke="#fbbf24" stroke-width="6" marker-end="url(#a)"/>
  <g transform="translate(540 160)" fill="none" stroke="#f9a8d4" stroke-width="7"><path d="M0 0c35 35-35 70 0 105s-35 70 0 105"/><path d="M35 0c-35 35 35 70 0 105s35 70 0 105"/><path d="M8 25h19M8 65h19M8 105h19M8 145h19M8 185h19"/></g>
  <g fill="#60a5fa"><circle cx="235" cy="305" r="13"/><circle cx="277" cy="323" r="13"/><circle cx="320" cy="298" r="13"/><circle cx="364" cy="326" r="13"/></g><path d="M235 305l42 18 43-25 44 28" stroke="#bfdbfe" stroke-width="6" fill="none"/>
  <g font-family="Arial,sans-serif" fill="#fff"><text x="400" y="48" text-anchor="middle" font-size="29" font-weight="700">3 · BIOSYNTHESIS</text><text x="400" y="422" text-anchor="middle" font-size="22">The host produces viral DNA and proteins</text></g>
</svg>
