<svg xmlns="http://www.w3.org/2000/svg" viewBox="0 0 800 450" role="img" aria-labelledby="title desc">
  <title id="title">Two new paramecia</title><desc id="desc">The parent Paramecium completes transverse binary fission into two new paramecia</desc>
  <defs><linearGradient id="bg" x2="1" y2="1"><stop stop-color="#172554"/><stop offset="1" stop-color="#0f766e"/></linearGradient></defs>
  <rect width="800" height="450" rx="32" fill="url(#bg)"/>
  <g><path d="M70 225c15-62 100-88 235-64 77 14 126 50 109 87-20 42-103 65-222 48-90-13-134-39-122-71z" fill="#5eead4" opacity=".34" stroke="#99f6e4" stroke-width="7" stroke-dasharray="3 8"/><ellipse cx="220" cy="226" rx="48" ry="29" fill="#c4b5fd"/><circle cx="292" cy="225" r="10" fill="#fde68a"/><ellipse cx="226" cy="272" rx="23" ry="8" fill="#fb7185"/></g>
  <g transform="translate(365 0)"><path d="M70 225c15-62 100-88 235-64 77 14 126 50 109 87-20 42-103 65-222 48-90-13-134-39-122-71z" fill="#5eead4" opacity=".34" stroke="#99f6e4" stroke-width="7" stroke-dasharray="3 8"/><ellipse cx="220" cy="226" rx="48" ry="29" fill="#f0abfc"/><circle cx="292" cy="225" r="10" fill="#fde68a"/><ellipse cx="226" cy="272" rx="23" ry="8" fill="#fb7185"/></g>
  <g font-family="Arial,sans-serif" fill="#fff"><text x="400" y="55" text-anchor="middle" font-size="30" font-weight="700">4 · TWO NEW PARAMECIA</text><text x="400" y="397" text-anchor="middle" font-size="22">Transverse binary fission is complete</text></g>
</svg>
